<svg viewBox="0 0 370 362.00000000000006" xmlns:xlink="http://www.w3.org/1999/xlink" version="1.1" xmlns="http://www.w3.org/2000/svg" style="max-height: 500px" width="370" height="362.00000000000006"><g transform="matrix(1,0,0,1,-1.2121212121212466,-0.5341078015965479)"><svg xmlns:xlink="http://www.w3.org/1999/xlink" xmlns="http://www.w3.org/2000/svg" width="2000" height="358" preserveAspectRatio="xMidYMid meet" data-background-color="#ffffff" viewBox="0 0 396 71"><g transform="matrix(1,0,0,1,0.2400000000000091,0.10592640757920435)" id="tight-bounds"><svg width="395.52" height="70.78814718484159" viewBox="0 0 395.52 70.78814718484159"><g><svg width="395.52" height="70.78814718484159" viewBox="0 0 493.60444715075494 88.34280000000001"><g><svg width="493.60444715075494" height="88.34280000000001" viewBox="0 0 493.60444715075494 88.34280000000001"><g id="textblocktransform"><svg id="textblock" width="493.60444715075494" height="88.34280000000001" viewBox="0 0 493.60444715075494 88.34280000000001"><g><svg width="493.60444715075494" height="88.34280000000001" viewBox="0 0 493.60444715075494 88.34280000000001"><g><svg><g/><g/></svg></g><g><svg><g/><g><svg/></g></svg></g><g id="text-0"><svg width="493.60444715075494" height="88.34280000000001" viewBox="0 0 493.60444715075494 88.34280000000001"><g><svg id="s-0" data-fill-palette-color="accent" class="icon-s-0" width="84.17964715075495" height="88.34280000000001" xml:space="preserve" viewBox="0 0 30.492000579833984 32" y="0" x="0" version="1.1" xmlns:xlink="http://www.w3.org/1999/xlink" xmlns="http://www.w3.org/2000/svg"><g data-fill-palette-color="accent" fill="#001f3f"><rect data-fill-palette-color="accent" fill="#001f3f" height="3" width="9.097" y="1.5" x="6.333"/><rect data-fill-palette-color="accent" fill="#001f3f" height="3" width="15.36" y="8" x="6.333"/><rect data-fill-palette-color="accent" fill="#001f3f" height="3" width="24.159" y="14.5" x="6.333"/><rect data-fill-palette-color="accent" fill="#001f3f" height="3" width="15.36" y="21" x="6.333"/><rect data-fill-palette-color="accent" fill="#001f3f" height="3" width="9.097" y="27.5" x="6.333"/><rect data-fill-palette-color="accent" fill="#001f3f" height="32" width="3" y="0" x="0"/></g></svg></g><g transform="matrix(1,0,0,1,98.08444715075495,4.803262182116491)"><svg data-palette-color="#233565" height="78.73627563576703" viewBox="1.7999999523162842 -35.70000076293945 182.8300018310547 36.400001525878906" width="395.52"><path data-fill-palette-color="primary" class="wordmark-text-0" fill="#233565" transform="matrix(1,0,0,1,0,0)" opacity="1" d="M11.8 0.7Q9.25 0.7 6.58 0.13 3.9-0.45 2.1-1.35L2.1-1.35 2.75-7.15Q7.5-4.35 12.25-4.35L12.25-4.35Q15.05-4.35 16.63-5.48 18.2-6.6 18.2-8.75L18.2-8.75Q18.2-11.05 16.57-12.5 14.95-13.95 10.85-15.75L10.85-15.75Q7.7-17.15 5.8-18.45 3.9-19.75 2.85-21.6 1.8-23.45 1.8-26.1L1.8-26.1Q1.8-28.95 3.25-31.13 4.7-33.3 7.33-34.5 9.95-35.7 13.45-35.7L13.45-35.7Q18.2-35.7 22.3-33.75L22.3-33.75 21.75-28.2Q17.3-30.65 13.05-30.65L13.05-30.65Q10.4-30.65 8.95-29.6 7.5-28.55 7.5-26.35L7.5-26.35Q7.5-24.8 8.35-23.75 9.2-22.7 10.6-21.93 12-21.15 15.1-19.7L15.1-19.7Q19.65-17.55 21.75-15.18 23.85-12.8 23.85-9.15L23.85-9.15Q23.85-4.6 20.65-1.95 17.45 0.7 11.8 0.7L11.8 0.7ZM45.25-35L50.95-35 40.55-15.3 40.55 0 35.35 0 35.35-15.3 24.9-35 30.6-35 37.95-20.5 45.25-35ZM54.39 0L54.39-35 60.05-35 72.89-11.05 72.89-35 78.09-35 78.09 0 73.39 0 59.64-25.4 59.64 0 54.39 0ZM84.69 0L84.69-35 95.94-35Q100.24-35 103.62-32.9 106.99-30.8 108.89-26.85 110.79-22.9 110.79-17.5L110.79-17.5Q110.79-12.1 108.89-8.15 106.99-4.2 103.62-2.1 100.24 0 95.94 0L95.94 0 84.69 0ZM89.94-4.8L95.49-4.8Q100.14-4.8 102.57-8.13 104.99-11.45 104.99-17.5L104.99-17.5Q104.99-23.55 102.57-26.88 100.14-30.2 95.49-30.2L95.49-30.2 89.94-30.2 89.94-4.8ZM133.14 0L130.49-9 120.04-9 117.44 0 112.04 0 122.74-35 127.84-35 138.54 0 133.14 0ZM121.44-13.85L129.09-13.85 125.29-26.95 121.44-13.85ZM145.74 0L145.74-30.2 137.14-30.2 137.14-35 159.54-35 159.54-30.2 150.94-30.2 150.94 0 145.74 0ZM179.24 0L176.59-9 166.13-9 163.53 0 158.13 0 168.84-35 173.94-35 184.63 0 179.24 0ZM167.53-13.85L175.19-13.85 171.38-26.95 167.53-13.85Z"/></svg></g></svg></g></svg></g></svg></g></svg></g></svg></g><defs/></svg><rect visibility="hidden" stroke="none" fill="none" height="70.78814718484159" width="395.52"/></g></svg></g></svg>